<svg width="257px" height="72px" viewBox="0 0 257 72" version="1.1" xmlns="http://www.w3.org/2000/svg" xmlns:xlink="http://www.w3.org/1999/xlink">
	<defs>
        <polygon id="path-1" points="84.3825552 29.4402943 256.139398 29.4402943 256.139398 71.9855518 84.3825552 71.9855518"></polygon>
        <polygon id="path-3" points="0.221538462 0.131478261 21.6628495 0.131478261 21.6628495 11.5440803 0.221538462 11.5440803"></polygon>
        <polygon id="path-5" points="0.0216722408 0.131478261 25.4215385 0.131478261 25.4215385 11.5440803 0.0216722408 11.5440803"></polygon>
    </defs>
    <g id="Page-1" stroke="none" stroke-width="1" fill="none" fill-rule="evenodd">
        <g id="Group">
            <rect id="Rectangle" fill="#8E143D" x="0" y="0" width="256.214047" height="72"></rect>
            <polygon id="Fill-1" fill="#8D0B3D" points="0.0144481605 71.9246288 71.6722676 71.9246288 71.6722676 0.252602007 0.0144481605 0.252602007"></polygon>
            <path d="M68.3995184,36.0888562 C68.3995184,54.1170301 53.820602,68.7320669 35.8362542,68.7320669 C17.8519064,68.7320669 3.27274916,54.1170301 3.27274916,36.0888562 C3.27274916,18.0599599 17.8519064,3.44492308 35.8362542,3.44492308 C53.820602,3.44492308 68.3995184,18.0599599 68.3995184,36.0888562" id="Fill-3" fill="#FFFFFE"></path>
            <path d="M31.9651104,15.553204 L39.4519064,15.553204" id="Fill-4" fill="#8D0B3D"></path>
            <path d="M31.7139532,18.1745819 L39.8470635,18.1745819" id="Fill-5" fill="#8D0B3D"></path>
            <path d="M27.1892709,58.4278796 L44.1740468,58.3922408" id="Fill-6" fill="#8D0B3D"></path>
            <path d="M17.0844682,21.8578997 L17.0844682,21.4966957 C17.7767759,21.4608161 18.015893,21.364495 18.015893,20.91901 L18.015893,16.9120535 C18.015893,16.9120535 17.5629431,17.0806154 17.0972308,17.3211773 L16.9082007,16.9361338 C17.6635987,16.430689 18.5321739,15.9613645 19.4130301,15.5522408 C19.4508361,15.5281605 19.6774314,15.5161204 19.7152375,15.4920401 C19.7152375,15.4920401 19.853699,15.5763211 19.8411773,15.6967224 C19.8284147,15.9613645 19.815893,16.4066087 19.815893,16.7555318 L19.815893,20.91901 C19.815893,21.3404147 19.9290702,21.436495 20.5963344,21.4966957 L20.5963344,21.8578997 C19.3752241,21.8097391 18.1668763,21.8097391 17.0844682,21.8578997" id="Fill-7" fill="#8D0B3D"></path>
            <path d="M23.0002676,23.2295117 L22.0563211,23.2295117 C23.1890569,21.4966957 25.0143411,18.4281472 25.7820201,16.960214 L21.741592,16.960214 L22.0059933,15.5161204 L27.1163077,15.5161204 L27.2547692,15.9734047 C26.1595987,17.7423411 24.2088562,21.0153311 23.0002676,23.2295117" id="Fill-8" fill="#8D0B3D"></path>
            <path d="M47.1296589,16.1058462 C45.7450435,16.1058462 44.9142742,17.2489365 44.9142742,18.6930301 C44.9142742,20.0887224 45.6193445,21.2922542 47.0918528,21.2922542 C48.4261405,21.2922542 49.3322809,20.2572843 49.3322809,18.6689498 C49.3322809,17.2609766 48.5771237,16.1058462 47.1296589,16.1058462 Z M47.0540468,22.0262207 C44.7885753,22.0262207 43.4668094,20.7386488 43.4668094,18.8131906 C43.4668094,16.7675719 45.040214,15.3836789 47.1799866,15.3836789 C49.3951304,15.3836789 50.7672241,16.5869699 50.7672241,18.5485485 C50.7672241,20.570087 49.2566689,22.0262207 47.0540468,22.0262207 L47.0540468,22.0262207 Z" id="Fill-9" fill="#8D0B3D"></path>
            <path d="M52.8735251,23.2295117 L51.9293378,23.2295117 C53.0620736,21.4966957 54.8871171,18.4281472 55.6550368,16.960214 L51.6146087,16.960214 L51.87901,15.5161204 L56.9893244,15.5161204 L57.127786,15.9734047 C56.0326154,17.7423411 54.0816321,21.0153311 52.8735251,23.2295117" id="Fill-10" fill="#8D0B3D"></path>
            <path d="M31.7257525,18.1673579 L39.8629565,18.1673579" id="Fill-11" fill="#8D0B3D"></path>
            <path d="M27.198903,58.4401605 L44.1918662,58.4042809" id="Fill-12" fill="#8D0B3D"></path>
            <path d="M35.4979264,56.500495 C36.6475184,56.500495 39.3777391,52.4092575 39.4497391,52.4049231 C40.8463946,52.3146221 41.9733512,52.2522542 43.3565217,52.0545552 C43.3565217,52.0545552 44.1198662,50.6554916 44.066408,50.6624749 C42.4496589,50.8779933 41.5663946,50.9579398 40.2400535,51.0754515 C40.1998395,51.0793043 40.8329097,49.7105819 40.8329097,49.7105819 C42.8985151,49.5126421 44.0928963,49.360214 45.8895251,49.0907559 C45.9427425,49.0828094 46.923291,47.3475853 46.868388,47.3569766 C45.090301,47.662796 43.2488829,47.9322542 41.3896455,48.1073177 L41.7397726,46.0190769 C42.2789298,45.9923478 43.8147692,45.8035585 44.1379264,45.7226488 C44.2747023,45.6884548 39.2161605,18.1943278 39.2161605,18.1943278 L31.7796923,18.1943278 C31.7796923,18.1943278 27.1093244,45.5699799 26.821806,46.5758127 C26.6838261,47.0588629 23.7725217,46.5642542 24.1272241,45.6776187 C24.3427425,45.1391839 28.8515318,20.2062341 28.9235318,19.8828361 C30.5869967,12.401097 27.6549833,7.89230769 27.7248161,7.89254849 C28.9505017,7.89712375 29.5084415,7.89254849 30.0834783,7.89254849 C30.3392107,7.89254849 31.0599331,9.4592107 31.4830234,11.449204 C31.8625284,13.2335518 31.9607759,15.4638662 31.9607759,15.4638662 L39.0321873,15.4638662 C39.0049766,15.0275318 39.1631839,12.9462742 39.5665284,11.3056856 C40.0392241,9.38311706 40.7881204,7.90001338 41.0621538,7.89254849 C41.2651505,7.88725084 41.7482007,7.89254849 43.4412843,7.89254849 C43.6209231,7.89254849 40.3927224,10.8161338 42.1262609,19.8288963 C42.2314916,20.3764816 46.9134181,45.2646421 46.9134181,45.2646421 C53.406903,44.0522007 56.8017391,42.2199331 59.9543278,40.4416054 C60.0891773,40.4683344 62.244602,43.1629164 62.244602,43.1629164 C55.5353579,54.6949565 44.0302876,56.500495 44.0302876,56.500495 C44.1022876,56.7160134 44.6770836,58.4673712 44.6770836,58.4673712 L26.24701,58.4941003 L26.8935652,56.5274649 C26.8935652,56.5274649 17.5528294,55.2697525 8.24821405,43.1629164 C8.24821405,43.1629164 10.5365619,40.3361338 10.6191572,40.3874247 C15.9811104,43.7285619 21.208214,45.0760936 29.1029298,46.0190769 L29.5611773,48.1745017 C27.594301,47.9681338 26.1571906,47.7704348 24.1094047,47.4470368 L24.926689,48.9561472 C27.3159331,49.3513043 28.1510368,49.4767625 29.992214,49.6474916 L30.5985552,51.0439064 C29.3008696,50.9497525 27.9535786,50.8059933 26.8576856,50.6624749 C26.8155452,50.6569365 27.648,52.0545552 27.648,52.0545552 C28.8156522,52.2522542 30.064214,52.3331639 31.2407759,52.4049231 C31.3079599,52.4087759 34.3302742,56.500495 35.4979264,56.500495" id="Fill-13" fill="#8D0B3D"></path>
            <path d="M40.5634515,44.9679732 C40.5634515,50.180388 35.8213244,55.1216589 35.4979264,55.135197 C35.0671304,55.153204 30.3606421,50.5721739 30.3606421,44.8964548 C30.3606421,44.7618462 35.3445351,42.5777659 35.4979264,42.5970301 C35.6517993,42.6162943 40.5634515,44.9118662 40.5634515,44.9679732" id="Fill-14" fill="#8D0B3D"></path>
            <polyline id="Fill-15" fill="#8D0B3D" points="47.5330033 63.3982876 23.6063679 63.3982876 24.7920803 59.7335117 46.3116522 59.7335117 47.5330033 63.3982876"></polyline>
            <path d="M13.3339666,26.6014716 C13.3339666,26.6014716 12.6380468,27.6923077 13.1707023,28.4185686 C14.4811505,30.2055652 14.1931505,31.6506221 13.8124415,32.2653913 C13.7515184,32.3641204 13.3852575,31.3558796 12.4367358,29.3914114 C12.1651104,28.8286555 11.3764816,27.8558127 12.2465017,26.1918662 C12.5046421,25.6987023 11.9199732,24.2719465 11.9199732,24.2719465 C11.8930033,24.3742876 10.438796,26.2527893 10.4645619,27.7204816 C10.4999599,29.7343144 12.725699,31.9956923 12.4494983,33.7366957 C12.2944214,34.7136321 12.0887759,35.0449766 10.2938328,37.1960669 C6.65843478,34.0651505 8.78159197,31.2956789 8.98555184,30.9518127 C8.98555184,30.9518127 10.3224883,32.7828763 10.3162274,34.7413244 C10.315505,35.0753177 10.3224883,35.3389967 10.3224883,35.3389967 C10.6215652,34.904107 11.3001472,34.3772308 11.3555318,33.5076923 C11.4819532,31.539612 7.46632776,27.9576722 10.5213913,24.4597726 C11.2498194,23.6253913 10.6697258,22.3265017 10.6697258,22.3265017 C10.6697258,22.3265017 7.02565886,25.8306622 8.35777926,29.3119465 C8.52465552,29.7480401 3.61300334,34.3490569 10.4797324,38.9991973 C10.4855117,39.0798662 14.0903278,35.6245886 15.3056589,31.9627023 C16.2570702,29.0957057 13.3339666,26.6014716 13.3339666,26.6014716" id="Fill-16" fill="#8D0B3D"></path>
            <path d="M62.4805886,26.5297124 C62.4805886,26.5297124 61.7846689,27.6205485 62.3173244,28.3468094 C63.6275318,30.1335652 63.3400134,31.5788629 62.9593043,32.1933913 C62.8978997,32.2921204 62.5318796,31.2838796 61.5835987,29.3194114 C61.3117324,28.7566555 60.5231037,27.7838127 61.3928829,26.120107 C61.6512642,25.6269431 61.0665953,24.1999465 61.0665953,24.1999465 C61.0393846,24.3022876 59.5854181,26.1810301 59.6109431,27.6484816 C59.6468227,29.6625552 61.8723211,31.9236923 61.5958796,33.6646957 C61.4410435,34.6416321 61.2351572,34.9729766 59.4404548,37.1240669 C55.8048161,33.9931505 57.928214,31.2236789 58.1321739,30.8800535 C58.1321739,30.8800535 59.4691104,32.7113579 59.4628495,34.6693244 C59.4618863,35.0033177 59.4691104,35.2669967 59.4691104,35.2669967 C59.7684281,34.832107 60.4467692,34.3052308 60.5021538,33.4361739 C60.6285753,31.4678528 56.6129498,27.885913 59.6682542,24.3877726 C60.3962007,23.5536321 59.8163478,22.2545017 59.8163478,22.2545017 C59.8163478,22.2545017 56.1722809,25.758903 57.5041605,29.2401873 C57.6712776,29.6760401 52.7596254,34.2770569 59.6261137,38.9271973 C59.631893,39.008107 63.236709,35.5530702 64.4522809,31.8909431 C65.4036923,29.0237057 62.4805886,26.5297124 62.4805886,26.5297124" id="Fill-17" fill="#8D0B3D"></path>
            <path d="M37.458301,28.7607492 C37.458301,28.7607492 36.7626221,29.8515853 37.294796,30.5778462 C38.6054849,32.364602 38.3177258,33.8101405 37.9367759,34.4246689 C37.875612,34.5236388 37.5098328,33.5151572 36.561311,31.5504482 C36.2894448,30.9876923 35.5008161,30.0148495 36.3708361,28.3511438 C36.6289766,27.8579799 36.0443077,26.4312241 36.0443077,26.4312241 C36.0173378,26.5335652 34.5631304,28.4120669 34.5888963,29.8795184 C34.6245351,31.8933512 36.8500334,34.1547291 36.5738328,35.8959732 C36.4189967,36.8726689 36.2128696,37.2040134 34.4181672,39.3553445 C30.7827692,36.2244281 32.9059264,33.4549565 33.1098863,33.1110903 C33.1098863,33.1110903 34.4468227,34.9421538 34.4405619,36.900602 C34.4398395,37.2343545 34.4468227,37.4982742 34.4468227,37.4982742 C34.7458997,37.0631438 35.4244816,36.5365084 35.480107,35.6669699 C35.6062876,33.6991304 31.5906622,30.1169498 34.6457258,26.6188094 C35.373913,25.7849097 34.7940602,24.4857793 34.7940602,24.4857793 C34.7940602,24.4857793 31.1499933,27.9899398 32.4821137,31.4712241 C32.64899,31.9070769 27.7373378,36.5083344 34.6040669,41.1582341 C34.6098462,41.2391438 38.2144214,37.7843478 39.4299933,34.1219799 C40.3814047,31.2547425 37.458301,28.7607492 37.458301,28.7607492" id="Fill-18" fill="#8D0B3D"></path>
            <path d="M89.5080401,16.9715318 C87.8089365,16.9715318 86.652602,16.6175518 85.6850569,16.0039866 C85.6850569,15.980388 85.1422876,14.7768562 85.0006957,13.0305552 C85.1422876,12.9125619 85.3782742,12.8181672 85.5670635,12.7945686 C86.2983813,14.9184482 87.6909431,16.1219799 89.6732308,16.1219799 C91.6319197,16.1219799 92.8826488,14.9656455 92.8826488,13.2193445 C92.8826488,8.66480268 85.826408,9.23117057 85.826408,4.29905017 C85.826408,1.77399331 87.8089365,0.00409364548 90.6879732,0.00409364548 C91.9858997,0.00409364548 93.2835853,0.287277592 94.4871171,0.782849498 C94.6289498,1.37281605 94.7705418,2.55274916 94.7941405,3.68548495 C94.6289498,3.82707692 94.4401605,3.89787291 94.2513712,3.92147157 C93.496214,1.79759197 92.0802943,0.830046823 90.5699799,0.830046823 C89.1540602,0.830046823 87.9030903,1.75039465 87.9030903,3.5910903 C87.9030903,7.13088963 95.1478796,7.03649498 95.1478796,12.1810033 C95.1478796,15.2960268 92.4578729,16.9715318 89.5080401,16.9715318" id="Fill-19" fill="#FFFFFF"></path>
            <path d="M107.160803,0.900842809 C104.022421,1.04243478 101.874943,3.68548495 101.874943,8.40521739 C101.874943,12.6765753 103.574047,16.0511839 107.939799,16.0511839 C111.267211,16.0511839 113.414689,13.2901405 113.414689,8.78279599 C113.414689,3.63828763 111.361605,0.735652174 107.160803,0.900842809 Z M107.090007,16.9715318 C101.898542,16.9715318 99.1374983,13.1249498 99.1374983,8.54680936 C99.1374983,3.21351171 102.677298,0.00409364548 108.199385,0.00409364548 C113.343652,0.00409364548 116.151893,3.70908361 116.151893,8.40521739 C116.151893,13.7857124 112.588495,16.9715318 107.090007,16.9715318 L107.090007,16.9715318 Z" id="Fill-20" fill="#FFFFFF"></path>
            <path d="M133.407331,3.80347826 C132.486983,2.12797324 130.622689,0.948040134 128.852789,0.924441472 C125.124201,0.877244147 123.236308,4.25185284 123.02392,7.53206689 C122.717137,12.9125619 125.619773,15.980388 129.01798,15.980388 C131.047465,15.980388 132.510582,14.9892441 133.808508,13.4553311 L134.256883,13.6913177 C134.044495,14.3992776 133.572522,15.3904214 133.218542,15.9567893 C131.920615,16.6175518 130.386702,16.9715318 128.427773,16.9715318 C123.495893,16.9715318 120.262876,13.4789298 120.262876,8.82999331 C120.262876,3.66188629 123.920669,0.00409364548 129.041579,0.00409364548 C130.504696,0.00409364548 131.991411,0.240080268 133.383732,0.759250836 C133.808508,1.39641472 134.162488,2.22236789 134.327438,3.11911706 C134.115291,3.44949833 133.761311,3.70908361 133.407331,3.80347826" id="Fill-21" fill="#FFFFFF"></path>
            <path d="M137.909137,16.6175518 L137.909137,16.0039866 C139.891184,15.8151973 140.056615,15.5320134 140.056615,14.3284816 L140.056615,2.5291505 C140.056615,1.37281605 139.678796,1.16042809 137.909137,0.924441472 L137.909137,0.310876254 C139.041632,0.428869565 143.360187,0.405270903 144.445726,0.310876254 L144.445726,0.924441472 C142.510635,1.13682943 142.298247,1.34921739 142.298247,2.5291505 L142.298247,14.3284816 C142.298247,15.4848161 142.487037,15.7444013 144.445726,16.0039866 L144.445726,16.6175518 C143.289391,16.4995585 138.994435,16.5231572 137.909137,16.6175518" id="Fill-22" fill="#FFFFFF"></path>
            <path d="M157.16709,16.6175518 C153.532896,16.6175518 149.379532,16.4523612 147.680669,16.6175518 L147.680669,16.0039866 C149.497766,15.8859933 149.828147,15.5320134 149.828147,14.3284816 L149.828147,2.5291505 C149.828147,1.37281605 149.23794,1.08963211 147.609873,0.924441472 L147.609873,0.310876254 C149.143545,0.452468227 155.090408,0.310876254 157.450274,0.310876254 C157.946087,0.310876254 158.181833,0.641257525 158.630207,2.57634783 C158.441418,2.85953177 158.158234,3.09551839 157.757057,3.30790635 C157.025498,1.70319732 156.624321,1.2784214 155.751171,1.2784214 L152.069779,1.2784214 L152.069779,7.39047492 L157.70986,7.53206689 L157.70986,8.26362542 L152.069779,8.64120401 L152.069779,14.1868896 C152.069779,15.3432241 152.211371,15.7444013 153.910475,15.7444013 C157.00214,15.7444013 157.780656,15.2488294 159.267371,13.1957458 L159.786542,13.4317324 C159.102181,16.0039866 158.535813,16.6175518 157.16709,16.6175518" id="Fill-23" fill="#FFFFFF"></path>
            <path d="M175.19695,3.35510368 C174.84297,2.00997993 174.347398,1.39641472 173.474247,1.39641472 L170.43002,1.39641472 L170.43002,14.3284816 C170.43002,15.4848161 170.737043,15.7915987 172.55414,16.0039866 L172.55414,16.6175518 C171.421164,16.4995585 167.126448,16.5231572 166.04091,16.6175518 L166.04091,16.0039866 C167.999599,15.7915987 168.164548,15.5320134 168.164548,14.3284816 L168.164548,1.39641472 L165.332709,1.39641472 C164.317967,1.39641472 163.845993,1.56160535 162.619104,3.21351171 L162.170488,2.9067291 C162.831492,0.47606689 163.138033,0.310876254 164.294609,0.310876254 L175.173592,0.310876254 C175.598127,0.310876254 175.952107,0.759250836 176.117298,2.69434114 C175.881311,3.00112375 175.645324,3.16631438 175.19695,3.35510368" id="Fill-24" fill="#FFFFFF"></path>
            <path d="M190.797592,2.62354515 L186.668067,9.5851505 L186.668067,14.3284816 C186.668067,15.4848161 186.903813,15.7915987 188.791706,16.0039866 L188.791706,16.6175518 C187.635371,16.4995585 183.340656,16.5231572 182.255117,16.6175518 L182.255117,16.0039866 C184.190207,15.838796 184.402595,15.5320134 184.402595,14.3284816 L184.402595,9.70314381 L180.225632,2.62354515 C179.446876,1.30202007 179.257846,1.06603344 178.50293,0.948040134 L178.50293,0.310876254 C179.588468,0.405270903 183.128268,0.428869565 184.284361,0.310876254 L184.284361,0.971638796 C182.703492,0.995237458 182.113525,1.58520401 182.679652,2.55274916 L186.148896,8.57040803 L189.547104,2.57634783 C190.089873,1.60880268 189.59406,1.01883612 188.036548,0.971638796 L188.036548,0.310876254 C189.169525,0.428869565 191.505793,0.405270903 192.591331,0.310876254 L192.591331,0.971638796 C191.788977,1.06603344 191.552749,1.37281605 190.797592,2.62354515" id="Fill-25" fill="#FFFFFF"></path>
            <path d="M210.6419,0.900842809 C207.503278,1.04243478 205.355799,3.68548495 205.355799,8.40521739 C205.355799,12.6765753 207.054903,16.0511839 211.420656,16.0511839 C214.748067,16.0511839 216.895545,13.2901405 216.895545,8.78279599 C216.895545,3.63828763 214.842462,0.735652174 210.6419,0.900842809 Z M210.571104,16.9715318 C205.379398,16.9715318 202.618355,13.1249498 202.618355,8.54680936 C202.618355,3.21351171 206.158154,0.00409364548 211.680241,0.00409364548 C216.824508,0.00409364548 219.632749,3.70908361 219.632749,8.40521739 C219.632749,13.7857124 216.069592,16.9715318 210.571104,16.9715318 L210.571104,16.9715318 Z" id="Fill-26" fill="#FFFFFF"></path>
            <path d="M233.770756,3.42589967 C233.015839,1.60880268 232.803452,1.2784214 231.953659,1.2784214 L227.918528,1.2784214 L227.918528,7.67365886 L233.723799,7.86244816 L233.723799,8.57040803 L227.918528,8.92438796 L227.918528,14.3520803 C227.918528,15.5320134 228.296107,15.8623946 230.372789,16.0039866 L230.372789,16.6175518 C228.531853,16.5467559 224.685512,16.5231572 223.599973,16.6175518 L223.599973,16.0039866 C225.275478,15.838796 225.676656,15.5320134 225.676656,14.3284816 L225.676656,2.5291505 C225.676656,1.37281605 224.921258,1.01883612 223.387585,0.948040134 L223.387585,0.310876254 C225.06309,0.428869565 231.009712,0.310876254 233.558368,0.310876254 C233.959545,0.310876254 234.266569,0.594060201 234.691344,2.64714381 C234.431518,2.97752508 234.195773,3.16631438 233.770756,3.42589967" id="Fill-27" fill="#FFFFFF"></path>
            <path d="M90.8485886,32.7205084 L88.5831171,39.0449498 L93.1140602,39.0449498 L90.8485886,32.7205084 Z M93.3264482,46.0535117 L93.3264482,45.4635452 C94.9311572,45.3927492 95.2143411,44.7555853 94.8603612,43.7880401 L93.3264482,39.6818729 L88.2052977,40.0594515 L86.9309699,43.7880401 C86.5772308,44.8499799 86.6952241,45.3457926 88.4887224,45.4635452 L88.4887224,46.0535117 C87.3321472,45.9355184 84.6657391,45.9591171 83.5802007,46.0535117 L83.5802007,45.4635452 C84.5477458,45.4163478 85.1377124,44.8974181 85.5624883,43.7410836 L90.9429833,29.7942742 L92.0282809,29.6290836 L97.3146221,43.7410836 C97.7629967,44.8974181 98.3529632,45.4635452 99.1789164,45.4635452 L99.1789164,46.0535117 C98.0933779,45.9591171 94.4591839,45.9355184 93.3264482,46.0535117 L93.3264482,46.0535117 Z" id="Fill-28" fill="#FFFFFF"></path>
            <path d="M116.151411,32.0361472 L116.033659,46.0535117 L115.018916,46.1481472 C114.570542,45.4401873 113.225418,43.4578997 112.517217,42.5139532 L105.036682,32.6261137 C104.942047,32.4845217 104.777097,32.5317191 104.777097,32.6969097 L104.777097,43.7646823 C104.777097,44.9207759 105.060281,45.2985953 107.089525,45.4401873 L107.089525,46.0535117 C105.95703,45.9355184 102.747612,45.9591171 101.685672,46.0535117 L101.685672,45.4401873 C103.243184,45.3219532 103.526127,44.968214 103.549967,43.7646823 L103.762355,32.3901271 C103.785953,31.0214047 103.573565,30.5730301 101.614876,30.3842408 L101.614876,29.7470769 C102.700415,29.8414716 104.800455,29.8414716 105.673605,29.7470769 C105.673605,29.7470769 106.712187,31.3281873 107.939318,32.956495 L114.830127,42.0417391 C114.924281,42.1363746 115.065873,42.1363746 115.065873,41.9709431 L114.924281,32.0361472 C114.900923,30.8798127 114.358154,30.596388 112.706007,30.3842408 L112.706007,29.7470769 C113.838983,29.8650702 116.812174,29.8414716 117.897953,29.7470769 L117.897953,30.3604013 C116.552589,30.596388 116.175251,30.8323746 116.151411,32.0361472" id="Fill-29" fill="#FFFFFF"></path>
            <path d="M133.496428,32.7913043 C133.142689,31.4461806 132.646876,30.8323746 131.773726,30.8323746 L128.729498,30.8323746 L128.729498,43.7646823 C128.729498,44.9207759 129.036522,45.2277993 130.853619,45.4401873 L130.853619,46.0535117 C129.720883,45.9355184 125.425926,45.9591171 124.340388,46.0535117 L124.340388,45.4401873 C126.299077,45.2277993 126.464027,44.968214 126.464027,43.7646823 L126.464027,30.8323746 L123.632428,30.8323746 C122.617686,30.8323746 122.145712,30.9975652 120.918582,32.6497124 L120.470207,32.342689 C121.13097,29.9122676 121.437512,29.7470769 122.594087,29.7470769 L133.47307,29.7470769 C133.897605,29.7470769 134.251585,30.1954515 134.417017,32.1305418 C134.180789,32.4373244 133.945043,32.6025151 133.496428,32.7913043" id="Fill-30" fill="#FFFFFF"></path>
            <path d="M137.106783,46.0535117 L137.106783,45.4401873 C139.088829,45.2511572 139.254261,44.968214 139.254261,43.7646823 L139.254261,31.9653512 C139.254261,30.8090167 138.876441,30.596388 137.106783,30.3604013 L137.106783,29.7470769 C138.239278,29.8650702 142.557833,29.8414716 143.643371,29.7470769 L143.643371,30.3604013 C141.708281,30.5730301 141.495893,30.7854181 141.495893,31.9653512 L141.495893,43.7646823 C141.495893,44.9207759 141.684682,45.1803612 143.643371,45.4401873 L143.643371,46.0535117 C142.487037,45.9355184 138.19208,45.9591171 137.106783,46.0535117" id="Fill-31" fill="#FFFFFF"></path>
            <path d="M155.204789,30.3370435 C151.995371,30.4314381 149.89509,33.1216856 149.89509,37.8650167 C149.89509,42.1363746 151.617552,45.5109833 155.983304,45.5109833 C159.310716,45.5109833 161.458194,42.7499398 161.458194,38.2189967 C161.458194,33.0744883 159.42895,30.2426488 155.204789,30.3370435 Z M159.995077,50.1124816 C158.508361,49.2395719 156.738702,48.0122007 154.520428,46.3133378 C149.89509,46.0535117 147.157645,42.3959599 147.157645,38.0063679 C147.157645,32.6497124 150.721043,29.4402943 156.24289,29.4402943 C161.410997,29.4402943 164.19588,33.1688829 164.19588,37.8650167 C164.19588,42.1363746 161.481793,45.5815385 156.59687,46.1951037 C158.461164,47.2570435 160.136669,48.0360401 161.552589,48.6968027 C163.65311,49.6643478 165.045191,50.1124816 166.767893,49.9239331 L166.791492,50.4667023 C163.700067,51.6702341 162.307987,51.481204 159.995077,50.1124816 L159.995077,50.1124816 Z" id="Fill-32" fill="#FFFFFF"></path>
            <path d="M181.945204,31.9653512 L181.945204,41.0977926 C181.945204,43.8116388 179.821084,46.4077324 175.738756,46.4077324 C171.939371,46.4077324 169.555666,44.4254448 169.555666,41.0977926 L169.555666,31.9653512 C169.555666,30.8090167 169.225525,30.5258328 167.597217,30.3604013 L167.597217,29.7470769 C169.249124,29.8886689 173.048508,29.8414716 174.134047,29.7470769 L174.134047,30.3604013 C172.175358,30.5258328 171.797779,30.8323746 171.797779,31.9653512 L171.797779,41.0977926 C171.797779,43.5994916 173.449445,45.3927492 175.880348,45.3927492 C178.523398,45.3927492 180.78887,43.9296321 180.741672,41.0977926 L180.670876,31.9653512 C180.670876,30.856214 180.316896,30.5258328 178.31101,30.3604013 L178.31101,29.7470769 C179.443746,29.8650702 182.818355,29.8414716 183.903652,29.7470769 L183.903652,30.3604013 C182.275585,30.5022341 181.945204,30.7618194 181.945204,31.9653512" id="Fill-33" fill="#FFFFFF"></path>
            <path d="M193.107612,32.7205084 L190.84214,39.0449498 L195.373084,39.0449498 L193.107612,32.7205084 Z M195.585472,46.0535117 L195.585472,45.4635452 C197.190181,45.3927492 197.473365,44.7555853 197.119385,43.7880401 L195.585472,39.6818729 L190.464562,40.0594515 L189.190234,43.7880401 C188.836254,44.8499799 188.954247,45.3457926 190.747746,45.4635452 L190.747746,46.0535117 C189.591411,45.9355184 186.924763,45.9591171 185.839465,46.0535117 L185.839465,45.4635452 C186.806769,45.4163478 187.396736,44.8974181 187.821512,43.7410836 L193.202007,29.7942742 L194.287304,29.6290836 L199.573645,43.7410836 C200.02202,44.8974181 200.611987,45.4635452 201.43794,45.4635452 L201.43794,46.0535117 C200.352401,45.9591171 196.718207,45.9355184 195.585472,46.0535117 L195.585472,46.0535117 Z" id="Fill-34" fill="#FFFFFF"></path>
            <path d="M209.739853,30.6202274 C209.338676,30.6202274 208.654555,30.6674247 208.253378,30.7146221 L208.253378,37.3930435 C208.630957,37.5343946 209.26812,37.6287893 209.787291,37.6287893 C211.722381,37.6287893 213.067505,36.0479197 213.067505,33.876602 C213.067505,31.6347291 211.675184,30.6202274 209.739853,30.6202274 Z M217.976027,46.3133378 C216.182288,45.8175251 215.026194,45.3693913 213.893458,44.2838528 C212.406742,42.8440936 208.890542,38.5021806 208.890542,38.5021806 L208.253378,38.4075452 L208.253378,43.6938863 C208.253378,44.8499799 208.442167,45.2277993 210.377258,45.4401873 L210.377258,46.0535117 C208.74895,46.0065552 205.421538,45.9355184 203.887625,46.0535117 L203.887625,45.4401873 C205.799117,45.2747559 206.035104,45.0151706 206.035104,43.7646823 L206.035104,31.9653512 C206.035104,30.8090167 205.468736,30.5022341 203.840428,30.3604013 L203.840428,29.7470769 C205.633926,29.9122676 209.032134,29.7470769 210.518849,29.7470769 C213.468682,29.7470769 215.521766,30.8798127 215.521766,33.6644548 C215.521766,36.0004816 213.799064,37.6526288 211.509993,38.1479599 C211.509993,38.1479599 216.394916,43.9532308 218.25897,45.7705686 L217.976027,46.3133378 L217.976027,46.3133378 Z" id="Fill-35" fill="#FFFFFF"></path>
            <path d="M220.782823,46.0535117 L220.782823,45.4401873 C222.76487,45.2511572 222.930301,44.968214 222.930301,43.7646823 L222.930301,31.9653512 C222.930301,30.8090167 222.552482,30.596388 220.782823,30.3604013 L220.782823,29.7470769 C221.915318,29.8650702 226.234114,29.8414716 227.319411,29.7470769 L227.319411,30.3604013 C225.384321,30.5730301 225.171933,30.7854181 225.171933,31.9653512 L225.171933,43.7646823 C225.171933,44.9207759 225.360963,45.1803612 227.319411,45.4401873 L227.319411,46.0535117 C226.163318,45.9355184 221.868361,45.9591171 220.782823,46.0535117" id="Fill-36" fill="#FFFFFF"></path>
            <path d="M240.041739,46.0535117 C236.407786,46.0535117 232.254181,45.8885619 230.555318,46.0535117 L230.555318,45.4401873 C232.372415,45.3219532 232.702796,44.968214 232.702796,43.7646823 L232.702796,31.9653512 C232.702796,30.8090167 232.112829,30.5258328 230.484522,30.3604013 L230.484522,29.7470769 C232.018194,29.8886689 237.965057,29.7470769 240.324923,29.7470769 C240.82194,29.7470769 241.057926,30.0774582 241.505819,32.0125485 C241.317993,32.2957324 241.033846,32.5317191 240.631946,32.7438662 C239.900147,31.139398 239.49897,30.7146221 238.625819,30.7146221 L234.944428,30.7146221 L234.944428,36.8264348 L240.584508,36.9680268 L240.584508,37.6998261 L234.944428,38.0771639 L234.944428,43.6230903 C234.944428,44.7791839 235.08602,45.1803612 236.785124,45.1803612 C239.876789,45.1803612 240.655304,44.6850301 242.143946,42.6317057 L242.661672,42.8676923 C241.977793,45.4401873 241.411906,46.0535117 240.041739,46.0535117" id="Fill-37" fill="#FFFFFF"></path>
            <mask id="mask-2" fill="white">
                <use xlink:href="#path-1"></use>
            </mask>
            <g id="Clip-39"></g>
            <path d="M250.499799,46.4077324 C248.799732,46.4077324 247.64388,46.0535117 246.675853,45.4401873 C246.675853,45.4163478 246.134047,44.2128161 245.991973,42.4665151 C246.134047,42.3487625 246.370033,42.2543679 246.55786,42.2305284 C247.2899,44.354408 248.681739,45.5579398 250.665953,45.5579398 C252.623679,45.5579398 253.873445,44.4018462 253.873445,42.6555452 C253.873445,38.1010033 246.817926,38.6673712 246.817926,33.73501 C246.817926,31.210194 248.799732,29.4402943 251.679732,29.4402943 C252.977659,29.4402943 254.275585,29.7232375 255.479599,30.2190502 C255.621672,30.8090167 255.761338,31.9889498 255.785418,33.1216856 C255.621672,33.2632776 255.431438,33.3338328 255.243612,33.3576722 C254.487492,31.2335518 253.071572,30.2662475 251.561739,30.2662475 C250.145819,30.2662475 248.893645,31.1865953 248.893645,33.027291 C248.893645,36.5668495 256.139398,36.4726957 256.139398,41.617204 C256.139398,44.7319866 253.449632,46.4077324 250.499799,46.4077324" id="Fill-38" fill="#FFFFFF" mask="url(#mask-2)"></path>
            <path d="M89.7861672,61.1768829 C87.6724013,61.2722408 86.2263813,63.0522542 86.2263813,66.2308495 C86.2263813,69.1077191 87.3706756,71.3801739 90.3108763,71.3801739 C92.5515452,71.3801739 93.997806,69.5206957 93.997806,66.4851371 C93.997806,63.0204682 92.6151171,61.0656321 89.7861672,61.1768829 Z M89.7387291,72 C86.2420334,72 84.3825552,69.4096856 84.3825552,66.3262074 C84.3825552,62.7343946 86.7667425,60.5729498 90.4854582,60.5729498 C93.9503679,60.5729498 95.8413913,63.068388 95.8413913,66.2308495 C95.8413913,69.8544482 93.4415518,72 89.7387291,72 L89.7387291,72 Z" id="Fill-40" fill="#FFFFFF" mask="url(#mask-2)"></path>
            <path d="M105.485538,62.8774314 C104.976963,61.6536722 104.833926,61.4311706 104.261779,61.4311706 L101.54408,61.4311706 L101.54408,65.738408 L105.453753,65.865311 L105.453753,66.3421003 L101.54408,66.5807358 L101.54408,70.2358796 C101.54408,71.0305284 101.798609,71.2532709 103.19695,71.348388 L103.19695,71.7616054 C101.957538,71.7139264 99.3667425,71.6982742 98.6356656,71.7616054 L98.6356656,71.348388 C99.7640669,71.2371371 100.034247,71.0305284 100.034247,70.2199866 L100.034247,62.2734983 C100.034247,61.4945017 99.5256722,61.2563478 98.4926288,61.2086689 L98.4926288,60.7797993 C99.6212709,60.8592642 103.62606,60.7797993 105.342502,60.7797993 C105.612682,60.7797993 105.819291,60.9702742 106.105365,62.3529632 C105.930783,62.5754649 105.771853,62.7026087 105.485538,62.8774314" id="Fill-42" fill="#FFFFFF" mask="url(#mask-2)"></path>
            <g id="Group-46" mask="url(#mask-2)">
                <g transform="translate(113.177258, 60.441472)">
                    <mask id="mask-4" fill="white">
                        <use xlink:href="#path-3"></use>
                    </mask>
                    <g id="Clip-44" stroke="none" fill="none"></g>
                    <path d="M6.35646823,11.3201338 C5.64104348,11.3201338 1.36583278,11.2247759 0.221538462,11.3201338 L0.221538462,10.9069164 C1.41375251,10.8274515 1.66779933,10.5890569 1.66779933,9.77851505 L1.66779933,1.83202676 C1.66779933,1.0530301 1.31815385,0.846662207 0.237672241,0.767197324 L0.237672241,0.338327759 C1.54089632,0.385765886 3.57495652,0.401658863 4.73538462,0.338327759 L4.73538462,0.767197324 C3.41626756,0.878688963 3.19352508,1.02172575 3.19352508,1.84791973 L3.19352508,9.68315719 C3.19352508,10.461913 3.27298997,10.7323344 4.41728428,10.7323344 C6.13372575,10.7323344 6.76968562,10.4460201 7.75505017,9.0633311 L8.12034783,9.23815385 C7.64379933,10.9704883 7.26236789,11.3201338 6.35646823,11.3201338" id="Fill-43" stroke="none" fill="#FFFFFF" fill-rule="evenodd" mask="url(#mask-4)"></path>
                    <path d="M15.6076254,0.735411371 C13.4941003,0.830769231 12.0478395,2.61078261 12.0478395,5.78937793 C12.0478395,8.66624749 13.1921338,10.9387023 16.1323344,10.9387023 C18.3730033,10.9387023 19.8192642,9.07922408 19.8192642,6.04366555 C19.8192642,2.57899666 18.4365753,0.624160535 15.6076254,0.735411371 Z M15.5601873,11.5585284 C12.0634916,11.5585284 10.2042542,8.96821405 10.2042542,5.88473579 C10.2042542,2.29292308 12.5882007,0.131478261 16.3069164,0.131478261 C19.7718261,0.131478261 21.6628495,2.62691639 21.6628495,5.78937793 C21.6628495,9.41297659 19.2632508,11.5585284 15.5601873,11.5585284 L15.5601873,11.5585284 Z" id="Fill-45" stroke="none" fill="#FFFFFF" fill-rule="evenodd" mask="url(#mask-4)"></path>
                </g>
            </g>
            <path d="M147.302368,62.3211773 L147.222903,71.7616054 L146.539264,71.8251773 C146.237538,71.348388 145.331639,70.0133779 144.854849,69.3776589 L139.816535,62.7182609 C139.753204,62.6231438 139.641953,62.6549298 139.641953,62.7664214 L139.641953,70.2199866 C139.641953,70.9987425 139.832669,71.2532709 141.199465,71.348388 L141.199465,71.7616054 C140.436602,71.6821405 138.275157,71.6982742 137.559973,71.7616054 L137.559973,71.348388 C138.60891,71.2689231 138.799625,71.0305284 138.815518,70.2199866 L138.958555,62.5595719 C138.974207,61.6377793 138.831411,61.3358127 137.512294,61.2086689 L137.512294,60.7797993 C138.243371,60.8431304 139.657846,60.8431304 140.245886,60.7797993 C140.245886,60.7797993 140.945177,61.8446288 141.771612,62.9410033 L146.412361,69.0595585 C146.475933,69.1233712 146.571291,69.1233712 146.571291,69.0121204 L146.475933,62.3211773 C146.46004,61.5426622 146.094502,61.3517057 144.981993,61.2086689 L144.981993,60.7797993 C145.744856,60.8592642 147.747371,60.8431304 148.478448,60.7797993 L148.478448,61.1927759 C147.572308,61.3517057 147.318261,61.5106355 147.302368,62.3211773" id="Fill-47" fill="#FFFFFF" mask="url(#mask-2)"></path>
            <g id="Group-51" mask="url(#mask-2)">
                <g transform="translate(150.742475, 60.441472)">
                    <mask id="mask-6" fill="white">
                        <use xlink:href="#path-5"></use>
                    </mask>
                    <g id="Clip-49" stroke="none" fill="none"></g>
                    <path d="M4.78980602,0.94226087 C4.02694314,0.94226087 3.42276923,0.989698997 3.04133779,1.0530301 L3.04133779,9.69905017 C3.04133779,10.5572709 3.12080268,10.7638796 4.42426756,10.7638796 C7.31654849,10.7638796 9.22394649,9.04767893 9.22394649,5.31258863 C9.22394649,2.18167224 7.26911037,0.94226087 4.78980602,0.94226087 Z M4.66266221,11.3201338 C3.93158528,11.3201338 0.832454849,11.2568027 0.101137124,11.3201338 L0.101137124,10.9228094 C1.22977926,10.8592375 1.51561204,10.5890569 1.51561204,9.77851505 L1.51561204,1.83202676 C1.51561204,1.0530301 1.0708495,0.814876254 0.0216722408,0.767197324 L0.0216722408,0.338327759 C1.59507692,0.465230769 4.67855518,0.338327759 5.39373913,0.338327759 C8.1270903,0.338327759 11.0198528,1.54595318 11.0198528,5.29693645 C11.0198528,8.92029431 8.44519064,11.3201338 4.66266221,11.3201338 L4.66266221,11.3201338 Z" id="Fill-48" stroke="none" fill="#FFFFFF" fill-rule="evenodd" mask="url(#mask-6)"></path>
                    <path d="M19.3663144,0.735411371 C17.2525485,0.830769231 15.8062876,2.61078261 15.8062876,5.78937793 C15.8062876,8.66624749 16.9505819,10.9387023 19.8907826,10.9387023 C22.1316923,10.9387023 23.5779532,9.07922408 23.5779532,6.04366555 C23.5779532,2.57899666 22.1950234,0.624160535 19.3663144,0.735411371 Z M19.3186355,11.5585284 C15.8221806,11.5585284 13.9627023,8.96821405 13.9627023,5.88473579 C13.9627023,2.29292308 16.3466488,0.131478261 20.0656054,0.131478261 C23.5302742,0.131478261 25.4215385,2.62691639 25.4215385,5.78937793 C25.4215385,9.41297659 23.021699,11.5585284 19.3186355,11.5585284 L19.3186355,11.5585284 Z" id="Fill-50" stroke="none" fill="#FFFFFF" fill-rule="evenodd" mask="url(#mask-6)"></path>
                </g>
            </g>
            <path d="M188.621217,62.3211773 L188.541753,71.7616054 L187.858114,71.8251773 C187.556147,71.348388 186.650488,70.0133779 186.173699,69.3776589 L181.135385,62.7182609 C181.072054,62.6231438 180.960803,62.6549298 180.960803,62.7664214 L180.960803,70.2199866 C180.960803,70.9987425 181.151518,71.2532709 182.518314,71.348388 L182.518314,71.7616054 C181.755452,71.6821405 179.594007,71.6982742 178.878823,71.7616054 L178.878823,71.348388 C179.927759,71.2689231 180.118475,71.0305284 180.134368,70.2199866 L180.277405,62.5595719 C180.293057,61.6377793 180.150261,61.3358127 178.831144,61.2086689 L178.831144,60.7797993 C179.562221,60.8431304 180.976696,60.8431304 181.564736,60.7797993 C181.564736,60.7797993 182.264027,61.8446288 183.090462,62.9410033 L187.731211,69.0595585 C187.794783,69.1233712 187.89014,69.1233712 187.89014,69.0121204 L187.794783,62.3211773 C187.77889,61.5426622 187.413351,61.3517057 186.300843,61.2086689 L186.300843,60.7797993 C187.063706,60.8592642 189.066221,60.8431304 189.797298,60.7797993 L189.797298,61.1927759 C188.891157,61.3517057 188.63711,61.5106355 188.621217,62.3211773" id="Fill-52" fill="#FFFFFF" mask="url(#mask-2)"></path>
        </g>
    </g>
</svg>